<?xml version="1.0" encoding="UTF-8"?><svg id="Layer_1" xmlns="http://www.w3.org/2000/svg" viewBox="0 0 352.7 59.34"><defs><style>.cls-1{fill:#bb0e3d;}.cls-2{fill:#706f6f;}</style></defs><path class="cls-1" d="M75.77,5.44c-1.06-1.75-2.96-2.81-5.02-2.81h-4.49l15.2,27-15.2,27h4.49c2.06,0,3.96-1.07,5.02-2.81l13.5-24.19-13.5-24.19Z"/><path class="cls-2" d="M62.27,2.63H8.04c-3.19,0-5.77,2.59-5.77,5.79V50.84c0,3.2,2.58,5.79,5.77,5.79H62.27l15-27L62.27,2.63ZM30.27,41.63h-4L15.27,24.03v17.6h-4V17.63h4l11,17.6V17.63h4v24Zm8,0h-4V17.63h4v24Zm23,0h-4v-10h-11v10h-4V17.63h4v10h11v-10h4v24Z"/><g><path class="cls-2" d="M110.12,10.63h2.5v11.18h-2.5l-5.33-7.01v7.01h-2.5V10.63h2.34l5.49,7.2v-7.2Z"/><path class="cls-2" d="M123.34,21.81l-1.04-2.42h-4.69l-1.04,2.42h-2.66l4.83-11.18h2.42l4.83,11.18h-2.66Zm-3.38-7.86l-1.41,3.25h2.8l-1.39-3.25Z"/><path class="cls-2" d="M131.21,12.79v9.02h-2.5V12.79h-3.17v-2.16h8.83v2.16h-3.17Z"/><path class="cls-2" d="M136.2,10.63h2.5v11.18h-2.5V10.63Z"/><path class="cls-2" d="M150.86,20.27c-1.13,1.1-2.52,1.66-4.18,1.66s-3.05-.55-4.18-1.66c-1.13-1.1-1.7-2.48-1.7-4.12s.57-3.02,1.7-4.12c1.13-1.1,2.52-1.66,4.18-1.66s3.04,.55,4.18,1.66c1.13,1.1,1.7,2.48,1.7,4.12s-.57,3.02-1.7,4.12Zm-.85-4.11c0-1-.32-1.85-.96-2.55-.64-.7-1.43-1.06-2.36-1.06s-1.72,.35-2.36,1.06c-.64,.7-.96,1.55-.96,2.55s.32,1.85,.96,2.54c.64,.7,1.43,1.05,2.36,1.05s1.72-.35,2.36-1.05c.64-.7,.96-1.55,.96-2.54Z"/><path class="cls-2" d="M162.49,10.63h2.5v11.18h-2.5l-5.33-7.01v7.01h-2.5V10.63h2.34l5.49,7.2v-7.2Z"/><path class="cls-2" d="M175.71,21.81l-1.04-2.42h-4.69l-1.04,2.42h-2.66l4.83-11.18h2.42l4.83,11.18h-2.66Zm-3.38-7.86l-1.41,3.25h2.8l-1.39-3.25Z"/><path class="cls-2" d="M179.66,21.81V10.63h2.5v8.96h4.77v2.22h-7.26Z"/><path class="cls-2" d="M198.11,19.6c1.23,0,2.23-.49,3.01-1.46l1.6,1.65c-1.27,1.43-2.77,2.14-4.49,2.14s-3.14-.54-4.26-1.63c-1.11-1.09-1.67-2.46-1.67-4.12s.57-3.04,1.7-4.15c1.14-1.11,2.53-1.66,4.17-1.66,1.83,0,3.37,.7,4.61,2.1l-1.55,1.76c-.79-.98-1.77-1.47-2.94-1.47-.94,0-1.74,.31-2.41,.92-.67,.61-1,1.44-1,2.48s.31,1.88,.94,2.5c.63,.63,1.39,.94,2.29,.94Z"/><path class="cls-2" d="M212.57,21.81l-1.04-2.42h-4.69l-1.04,2.42h-2.66l4.83-11.18h2.42l4.83,11.18h-2.66Zm-3.38-7.86l-1.41,3.25h2.8l-1.39-3.25Z"/><path class="cls-2" d="M224.35,10.63h2.5v11.18h-2.5l-5.33-7.01v7.01h-2.5V10.63h2.34l5.49,7.2v-7.2Z"/><path class="cls-2" d="M234.73,19.6c1.23,0,2.23-.49,3.01-1.46l1.6,1.65c-1.27,1.43-2.77,2.14-4.49,2.14s-3.14-.54-4.26-1.63c-1.12-1.09-1.67-2.46-1.67-4.12s.57-3.04,1.7-4.15c1.14-1.11,2.52-1.66,4.17-1.66,1.83,0,3.37,.7,4.61,2.1l-1.55,1.76c-.79-.98-1.77-1.47-2.94-1.47-.94,0-1.74,.31-2.41,.92-.67,.61-1,1.44-1,2.48s.32,1.88,.94,2.5c.63,.63,1.39,.94,2.29,.94Z"/><path class="cls-2" d="M249.37,10.63v2.22h-5.57v2.3h5.01v2.13h-5.01v2.32h5.74v2.21h-8.24V10.63h8.06Z"/><path class="cls-2" d="M260.84,14.34c0,1.79-.71,2.95-2.13,3.47l2.83,4h-3.07l-2.48-3.57h-1.73v3.57h-2.5V10.63h4.24c1.74,0,2.98,.29,3.72,.88s1.11,1.53,1.11,2.83Zm-3.01,1.33c.31-.28,.46-.72,.46-1.32s-.16-1.02-.48-1.24-.88-.34-1.68-.34h-1.87v3.31h1.82c.85,0,1.43-.14,1.74-.42Z"/><path class="cls-2" d="M267.63,10.63h2.5v11.18h-2.5V10.63Z"/><path class="cls-2" d="M280.7,10.63h2.5v11.18h-2.5l-5.33-7.01v7.01h-2.5V10.63h2.34l5.49,7.2v-7.2Z"/><path class="cls-2" d="M288.56,12.86c-.24,.2-.36,.46-.36,.78s.15,.58,.44,.78c.29,.19,.97,.42,2.03,.68s1.89,.65,2.47,1.18c.59,.52,.88,1.29,.88,2.29s-.38,1.82-1.13,2.44-1.74,.94-2.97,.94c-1.77,0-3.37-.66-4.78-1.97l1.49-1.82c1.21,1.06,2.32,1.58,3.34,1.58,.46,0,.82-.1,1.08-.3,.26-.2,.39-.46,.39-.8s-.14-.6-.42-.8-.83-.4-1.65-.6c-1.3-.31-2.25-.71-2.86-1.21s-.9-1.27-.9-2.34,.38-1.88,1.14-2.46c.76-.58,1.71-.86,2.86-.86,.75,0,1.49,.13,2.24,.38,.75,.26,1.4,.62,1.95,1.09l-1.26,1.82c-.97-.74-1.97-1.1-3.01-1.1-.42,0-.74,.1-.98,.3Z"/><path class="cls-2" d="M300.79,12.79v9.02h-2.5V12.79h-3.17v-2.16h8.83v2.16h-3.17Z"/><path class="cls-2" d="M305.78,10.63h2.5v11.18h-2.5V10.63Z"/><path class="cls-2" d="M315.77,12.79v9.02h-2.5V12.79h-3.17v-2.16h8.83v2.16h-3.17Z"/><path class="cls-2" d="M323.72,18.92c.42,.52,.98,.78,1.68,.78s1.26-.26,1.67-.78c.41-.52,.62-1.22,.62-2.12v-6.18h2.5v6.26c0,1.62-.45,2.87-1.34,3.74-.9,.87-2.04,1.3-3.44,1.3s-2.55-.44-3.45-1.31c-.9-.87-1.35-2.12-1.35-3.73v-6.26h2.5v6.18c0,.9,.21,1.6,.62,2.12Z"/><path class="cls-2" d="M337.51,12.79v9.02h-2.5V12.79h-3.17v-2.16h8.83v2.16h-3.17Z"/><path class="cls-2" d="M350.57,10.63v2.22h-5.57v2.3h5.01v2.13h-5.01v2.32h5.74v2.21h-8.24V10.63h8.06Z"/></g><g><path class="cls-2" d="M112.32,42.71v6.09h-3.17v-6.17c0-.9-.14-1.55-.41-1.97-.27-.42-.71-.63-1.32-.63s-1.15,.23-1.62,.68c-.47,.46-.7,1.12-.7,2.01v6.09h-3.15v-11.3h3.15v1.28c.87-.98,1.86-1.47,2.98-1.47,.71,0,1.36,.21,1.94,.63s1.02,.93,1.31,1.53c.43-.69,1.02-1.22,1.75-1.6,.73-.38,1.47-.57,2.21-.57,1.33,0,2.4,.4,3.21,1.19,.81,.79,1.22,1.94,1.22,3.43v6.87h-3.17v-6.17c0-1.74-.64-2.6-1.91-2.6-.63,0-1.18,.23-1.64,.68s-.69,1.12-.69,2.01Z"/><path class="cls-2" d="M124.55,53.25c-1.11,0-2.15-.45-3.13-1.34l1.43-2.33c.53,.52,1.08,.78,1.64,.78,.29,0,.55-.14,.76-.43s.32-.59,.32-.91-1.46-4.16-4.37-11.51h3.36l2.75,7.04,2.75-7.04h3.36l-5.25,13.31c-.31,.77-.79,1.37-1.44,1.8-.65,.43-1.38,.64-2.17,.64Z"/><path class="cls-2" d="M145.57,34.12h3.28v14.68h-3.28l-6.99-9.2v9.2h-3.28v-14.68h3.07l7.2,9.45v-9.45Z"/><path class="cls-2" d="M159.19,45.9c1.61,0,2.93-.64,3.95-1.91l2.1,2.16c-1.67,1.88-3.63,2.81-5.89,2.81s-4.12-.71-5.59-2.14c-1.46-1.43-2.19-3.23-2.19-5.41s.75-3.99,2.24-5.45c1.49-1.46,3.31-2.18,5.47-2.18,2.41,0,4.42,.92,6.05,2.75l-2.04,2.31c-1.04-1.29-2.32-1.93-3.86-1.93-1.23,0-2.29,.4-3.16,1.21-.88,.81-1.31,1.89-1.31,3.25s.41,2.46,1.24,3.29,1.83,1.24,3,1.24Z"/><path class="cls-2" d="M167.83,34.12h3.28v14.68h-3.28v-14.68Z"/></g></svg>